<svg width="20" height="24" viewBox="0 0 20 24" fill="none" xmlns="http://www.w3.org/2000/svg">
<path d="M10.2159 23.4545C8.11364 23.4545 6.30019 22.9905 4.77557 22.0625C3.26042 21.125 2.09091 19.8182 1.26705 18.142C0.452652 16.4564 0.0454547 14.4962 0.0454547 12.2614C0.0454547 10.0265 0.452652 8.05682 1.26705 6.35227C2.09091 4.63826 3.23674 3.30303 4.70455 2.34659C6.18182 1.38068 7.9053 0.897727 9.875 0.897727C11.0114 0.897727 12.1335 1.08712 13.2415 1.46591C14.3494 1.8447 15.358 2.46023 16.267 3.3125C17.1761 4.1553 17.9006 5.27273 18.4403 6.66477C18.9801 8.05682 19.25 9.77083 19.25 11.8068V13.2273H2.43182V10.3295H15.8409C15.8409 9.09848 15.5947 8 15.1023 7.03409C14.6193 6.06818 13.928 5.30587 13.0284 4.74716C12.1383 4.18845 11.0871 3.90909 9.875 3.90909C8.53977 3.90909 7.38447 4.24053 6.40909 4.90341C5.44318 5.55682 4.69981 6.40909 4.17898 7.46023C3.65814 8.51136 3.39773 9.63826 3.39773 10.8409V12.7727C3.39773 14.4205 3.68182 15.8172 4.25 16.9631C4.82765 18.0994 5.62784 18.9659 6.65057 19.5625C7.6733 20.1496 8.86174 20.4432 10.2159 20.4432C11.0966 20.4432 11.892 20.3201 12.6023 20.0739C13.322 19.8182 13.9422 19.4394 14.4631 18.9375C14.9839 18.4261 15.3864 17.7917 15.6705 17.0341L18.9091 17.9432C18.5682 19.0417 17.9953 20.0076 17.1903 20.8409C16.3854 21.6648 15.3911 22.3087 14.2074 22.7727C13.0237 23.2273 11.6932 23.4545 10.2159 23.4545Z" fill="#1B9E4B"/>
</svg>
